<?xml version="1.0" standalone="no"?>
<!DOCTYPE svg PUBLIC "-//W3C//DTD SVG 20010904//EN"
 "http://www.w3.org/TR/2001/REC-SVG-20010904/DTD/svg10.dtd">
<svg version="1.0" xmlns="http://www.w3.org/2000/svg"
 width="800.000000pt" height="240.000000pt" viewBox="0 0 800.000000 240.000000"
 preserveAspectRatio="xMidYMid meet">

<g transform="translate(0.000000,240.000000) scale(0.100000,-0.100000)"
fill="#000000" stroke="none">
<path d="M705 1905 c-158 -126 -259 -280 -312 -473 -37 -133 -39 -307 -5 -431
32 -118 62 -186 118 -272 151 -229 410 -385 681 -408 251 -22 463 38 658 184
43 32 106 92 141 132 74 88 157 247 182 349 15 62 22 74 57 101 22 16 54 54
70 84 27 49 30 62 30 149 0 163 -67 318 -197 456 -63 66 -96 91 -166 127 -99
52 -162 68 -162 44 0 -9 14 -26 31 -38 87 -62 224 -287 264 -434 24 -90 31
-311 12 -411 -31 -163 -108 -306 -232 -429 -321 -322 -850 -328 -1181 -13
-177 169 -254 354 -254 613 1 269 78 464 257 642 45 46 82 83 80 83 -1 0 -34
-25 -72 -55z m1580 -461 c8 -32 15 -79 14 -104 l-1 -45 -8 35 c-5 19 -13 65
-19 102 -6 37 -14 75 -17 85 -5 16 -4 16 5 2 6 -9 17 -43 26 -75z"/>
<path d="M1670 1901 c0 -6 4 -13 10 -16 6 -3 7 1 4 9 -7 18 -14 21 -14 7z"/>
<path d="M1648 1833 c7 -3 16 -2 19 1 4 3 -2 6 -13 5 -11 0 -14 -3 -6 -6z"/>
<path d="M1680 1826 c0 -2 7 -7 16 -10 8 -3 12 -2 9 4 -6 10 -25 14 -25 6z"/>
<path d="M1785 1790 c10 -11 20 -20 23 -20 3 0 -3 9 -13 20 -10 11 -20 20 -23
20 -3 0 3 -9 13 -20z"/>
<path d="M1800 1725 c13 -14 26 -25 28 -25 3 0 -5 11 -18 25 -13 14 -26 25
-28 25 -3 0 5 -11 18 -25z"/>
<path d="M1105 1683 l-40 -35 40 28 c51 35 49 33 44 38 -2 3 -22 -11 -44 -31z"/>
<path d="M1150 1681 c0 -6 4 -13 10 -16 6 -3 7 1 4 9 -7 18 -14 21 -14 7z"/>
<path d="M1890 1660 c6 -11 13 -20 16 -20 2 0 0 9 -6 20 -6 11 -13 20 -16 20
-2 0 0 -9 6 -20z"/>
<path d="M1870 1641 c0 -6 4 -13 10 -16 6 -3 7 1 4 9 -7 18 -14 21 -14 7z"/>
<path d="M1023 1598 c-15 -20 -25 -38 -20 -38 3 0 12 11 21 25 17 26 16 35 -1
13z"/>
<path d="M1941 1580 c14 -31 19 -36 19 -24 0 6 -7 19 -16 30 -14 18 -14 18 -3
-6z"/>
<path d="M1235 1570 c10 -11 20 -20 23 -20 3 0 -3 9 -13 20 -10 11 -20 20 -23
20 -3 0 3 -9 13 -20z"/>
<path d="M3300 1387 c0 -284 13 -341 93 -425 132 -136 430 -114 534 40 45 68
53 122 53 368 l0 220 -115 0 -115 0 0 -219 c0 -232 -6 -269 -45 -295 -28 -18
-87 -21 -116 -6 -44 24 -49 56 -49 295 l0 225 -120 0 -120 0 0 -203z"/>
<path d="M5742 1348 c3 -229 5 -246 27 -295 13 -29 44 -72 70 -96 65 -60 130
-82 252 -82 89 0 100 3 165 35 47 24 79 48 101 78 55 73 63 118 63 374 l0 228
-115 0 -115 0 0 -221 c0 -241 -6 -275 -56 -298 -31 -14 -79 -14 -105 -1 -44
24 -49 56 -49 295 l0 225 -121 0 -121 0 4 -242z"/>
<path d="M2539 1563 c5 -10 64 -110 130 -222 l121 -203 0 -129 0 -129 115 0
115 0 0 128 0 127 130 220 129 220 -101 3 c-56 1 -107 1 -114 -2 -6 -2 -42
-57 -79 -120 -37 -64 -68 -116 -70 -116 -1 0 -34 54 -71 120 l-69 120 -123 0
c-114 0 -122 -1 -113 -17z"/>
<path d="M4100 1230 l0 -350 105 0 104 0 3 152 3 153 73 -118 74 -118 56 3 56
3 71 118 70 117 3 -155 3 -155 111 0 111 0 -7 38 c-3 20 -6 178 -6 350 l0 312
-94 0 -94 0 -108 -185 c-60 -102 -112 -185 -115 -185 -3 0 -56 83 -118 185
l-112 185 -95 0 -94 0 0 -350z"/>
<path d="M4979 1563 c5 -10 64 -110 130 -222 l121 -205 0 -128 0 -128 115 0
115 0 0 126 0 127 126 216 c70 119 129 219 131 224 2 4 -47 7 -109 7 l-113 -1
-69 -119 c-38 -66 -70 -120 -71 -120 -2 0 -34 54 -71 120 l-69 120 -123 0
c-114 0 -122 -1 -113 -17z"/>
<path d="M6530 1230 l0 -350 105 0 104 0 3 152 3 153 73 -118 74 -118 56 3 56
3 71 118 70 117 3 -155 3 -155 111 0 111 0 -7 46 c-3 26 -6 183 -6 350 l0 304
-94 0 -94 0 -108 -185 c-60 -102 -112 -184 -116 -182 -4 1 -57 83 -117 182
l-109 180 -96 3 -96 3 0 -351z"/>
<path d="M1911 1565 c0 -5 6 -21 14 -35 8 -14 14 -20 14 -15 0 6 -6 21 -14 35
-8 14 -14 21 -14 15z"/>
<path d="M1965 1525 c18 -55 38 -159 45 -235 l9 -85 -4 91 c-3 87 -27 203 -47
234 -7 12 -8 10 -3 -5z"/>
<path d="M1618 1513 c7 -3 16 -2 19 1 4 3 -2 6 -13 5 -11 0 -14 -3 -6 -6z"/>
<path d="M1642 1470 c0 -14 2 -19 5 -12 2 6 2 18 0 25 -3 6 -5 1 -5 -13z"/>
<path d="M1972 1410 c0 -14 2 -19 5 -12 2 6 2 18 0 25 -3 6 -5 1 -5 -13z"/>
<path d="M1985 1239 c0 -87 2 -128 7 -104 9 51 9 159 0 209 -4 23 -7 -20 -7
-105z"/>
<path d="M2006 1145 c-5 -33 -18 -96 -31 -140 -28 -97 -25 -114 4 -21 24 78
45 190 39 208 -3 7 -8 -14 -12 -47z"/>
<path d="M1971 1078 c0 -9 -4 -25 -7 -35 -5 -17 -5 -17 6 0 6 10 9 25 7 35 -4
15 -5 15 -6 0z"/>
<path d="M1936 985 c-9 -26 -7 -32 5 -12 6 10 9 21 6 23 -2 3 -7 -2 -11 -11z"/>
<path d="M1902 905 c-12 -25 -20 -45 -17 -45 7 0 47 81 43 86 -3 2 -14 -17
-26 -41z"/>
<path d="M1906 853 c-6 -14 -5 -15 5 -6 7 7 10 15 7 18 -3 3 -9 -2 -12 -12z"/>
<path d="M1873 798 c-15 -20 -25 -38 -20 -38 3 0 12 11 21 25 17 26 16 35 -1
13z"/>
<path d="M1794 748 l-19 -23 23 19 c21 18 27 26 19 26 -2 0 -12 -10 -23 -22z"/>
</g>
</svg>
